<svg width="26" height="20" viewBox="0 0 26 20" fill="none" xmlns="http://www.w3.org/2000/svg">
<path d="M26.001 2.36736C25.044 2.76965 24.016 3.04037 22.937 3.16248C24.039 2.53774 24.884 1.54858 25.282 0.369161C24.252 0.947513 23.11 1.36779 21.894 1.59496C20.921 0.613375 19.535 0 18.001 0C15.055 0 12.667 2.26135 12.667 5.04899C12.667 5.44465 12.715 5.83085 12.805 6.19906C8.372 5.98892 4.442 3.97842 1.81 0.922902C1.352 1.6688 1.089 2.53585 1.089 3.46254C1.089 5.21369 2.03 6.75943 3.461 7.66435C2.587 7.63784 1.764 7.41067 1.045 7.03299C1.045 7.05476 1.045 7.07464 1.045 7.09641C1.045 9.54328 2.883 11.5841 5.324 12.0469C4.877 12.1624 4.405 12.224 3.918 12.224C3.575 12.224 3.24 12.1918 2.915 12.134C3.594 14.1398 5.564 15.6004 7.898 15.6411C6.073 16.9956 3.773 17.803 1.273 17.803C0.843 17.803 0.418 17.7794 0 17.732C2.361 19.1642 5.164 20 8.177 20C17.989 20 23.353 12.3063 23.353 5.63396C23.353 5.41531 23.348 5.1976 23.338 4.98083C24.381 4.26807 25.286 3.37924 26.001 2.36736Z" fill="#01EEFF"/>
</svg>
